<svg width="92" height="76" viewBox="0 0 92 76" fill="none" xmlns="http://www.w3.org/2000/svg">
<path d="M17.5 14.4947C19.1569 14.4947 20.5 13.1515 20.5 11.4947C20.5 9.83784 19.1569 8.49469 17.5 8.49469C15.8431 8.49469 14.5 9.83784 14.5 11.4947C14.5 13.1515 15.8431 14.4947 17.5 14.4947Z" stroke="white" stroke-width="2" stroke-linecap="round" stroke-linejoin="round"/>
<path d="M82.8298 10.4265C83.7155 10.4265 84.4334 9.70856 84.4334 8.82289C84.4334 7.93722 83.7155 7.21924 82.8298 7.21924C81.9441 7.21924 81.2262 7.93722 81.2262 8.82289C81.2262 9.70856 81.9441 10.4265 82.8298 10.4265Z" fill="white"/>
<path d="M15.3298 59.9265C16.2155 59.9265 16.9335 59.2086 16.9335 58.3229C16.9335 57.4372 16.2155 56.7192 15.3298 56.7192C14.4441 56.7192 13.7262 57.4372 13.7262 58.3229C13.7262 59.2086 14.4441 59.9265 15.3298 59.9265Z" fill="white"/>
<path d="M61.0671 38.472C64.7439 36.924 67.8574 34.2855 69.9876 30.9124C72.1179 27.5393 73.1622 23.594 72.9799 19.6088C72.7976 15.6236 71.3973 11.7901 68.968 8.62566C66.5387 5.46119 63.1972 3.11797 59.3944 1.91212C55.5916 0.70627 51.5105 0.69581 47.7015 1.88215C43.8926 3.0685 40.5392 5.39456 38.0937 8.54653C35.6482 11.6985 34.2282 15.5247 34.0255 19.509C33.8227 23.4932 34.8469 27.4438 36.9598 30.8277" stroke="white" stroke-width="2" stroke-linecap="round" stroke-linejoin="round"/>
<path d="M56.5 15.9947H52V24.9947" stroke="white" stroke-width="2" stroke-linecap="round" stroke-linejoin="round"/>
<path d="M56.5 20.4947H52" stroke="white" stroke-width="2" stroke-linecap="round" stroke-linejoin="round"/>
<path d="M47.5 21.9947L41.5 15.9947V24.9947" stroke="white" stroke-width="2" stroke-linecap="round" stroke-linejoin="round"/>
<path d="M47.5 15.9947V24.9947" stroke="white" stroke-width="2" stroke-linecap="round" stroke-linejoin="round"/>
<path d="M61 15.9947H67" stroke="white" stroke-width="2" stroke-linecap="round" stroke-linejoin="round"/>
<path d="M64 24.9947V15.9947" stroke="white" stroke-width="2" stroke-linecap="round" stroke-linejoin="round"/>
<path d="M91 74.4947L74.5 69.9947L52 74.4947L25.5481 70.3181C24.9772 70.228 24.4572 69.937 24.0818 69.4976C23.7063 69.0582 23.5 68.4992 23.5 67.9213V67.9213C23.5 67.2777 23.7557 66.6605 24.2107 66.2054C24.6658 65.7504 25.283 65.4947 25.9266 65.4947H41.5V63.7645C41.5 62.2342 42.1079 60.7667 43.1899 59.6846C44.272 58.6026 45.7395 57.9947 47.2698 57.9947H56.5C56.5 57.9947 59.5 50.4947 70 51.9947C80.5 53.4947 79 56.4947 91 56.4947" stroke="white" stroke-width="2" stroke-linecap="round" stroke-linejoin="round"/>
<path d="M40 65.4947H58L65.5 62.4947" stroke="white" stroke-width="2" stroke-linecap="round" stroke-linejoin="round"/>
<path d="M1 47.4947L17.5 42.9947L40 47.4947L66.4519 43.3181C67.0228 43.2279 67.5428 42.937 67.9182 42.4976C68.2937 42.0582 68.5 41.4992 68.5 40.9212V40.9212C68.5 40.2777 68.2443 39.6605 67.7893 39.2054C67.3342 38.7503 66.717 38.4947 66.0735 38.4947H50.5V36.7644C50.5 35.2342 49.8921 33.7666 48.8101 32.6846C47.728 31.6026 46.2605 30.9947 44.7302 30.9947H35.5C35.5 30.9947 32.5 23.4947 22 24.9947C11.5 26.4947 13 29.4947 1 29.4947" stroke="white" stroke-width="2" stroke-linecap="round" stroke-linejoin="round"/>
<path d="M52 38.4947H34L26.5 35.4947" stroke="white" stroke-width="2" stroke-linecap="round" stroke-linejoin="round"/>
<path d="M83.5 32.4947V38.4947" stroke="white" stroke-width="2" stroke-linecap="round" stroke-linejoin="round"/>
<path d="M80.5 35.4947H86.5" stroke="white" stroke-width="2" stroke-linecap="round" stroke-linejoin="round"/>
</svg>
