<svg width="78" height="76" viewBox="0 0 78 76" fill="none" xmlns="http://www.w3.org/2000/svg">
<path d="M37.9688 35.9532H33.75V44.2053" stroke="white" stroke-width="2" stroke-linecap="round" stroke-linejoin="round"/>
<path d="M37.9688 40.0793H33.75" stroke="white" stroke-width="2" stroke-linecap="round" stroke-linejoin="round"/>
<path d="M29.5312 41.4546L23.9062 35.9532V44.2053" stroke="white" stroke-width="2" stroke-linecap="round" stroke-linejoin="round"/>
<path d="M29.5312 35.9532V44.2053" stroke="white" stroke-width="2" stroke-linecap="round" stroke-linejoin="round"/>
<path d="M42.1875 35.9532H47.8125" stroke="white" stroke-width="2" stroke-linecap="round" stroke-linejoin="round"/>
<path d="M45 44.2053V35.9532" stroke="white" stroke-width="2" stroke-linecap="round" stroke-linejoin="round"/>
<path d="M72.5425 1L76.52 4.89002" stroke="white" stroke-width="2" stroke-linecap="round" stroke-linejoin="round"/>
<path d="M76.52 1L72.5425 4.89002" stroke="white" stroke-width="2" stroke-linecap="round" stroke-linejoin="round"/>
<path d="M1.40625 42.83C2.1829 42.83 2.8125 42.2142 2.8125 41.4546C2.8125 40.695 2.1829 40.0793 1.40625 40.0793C0.6296 40.0793 0 40.695 0 41.4546C0 42.2142 0.6296 42.83 1.40625 42.83Z" fill="white"/>
<path d="M16.875 5.35187L4.21875 12.2286V27.3574L16.875 34.2341L29.5312 27.3574V12.2286L16.875 5.35187Z" stroke="white" stroke-width="2" stroke-linecap="round" stroke-linejoin="round"/>
<path d="M16.875 19.282V40.0793" stroke="white" stroke-width="2" stroke-linecap="round" stroke-linejoin="round"/>
<path d="M29.5312 12.2286L16.875 19.1053L4.21875 12.2286" stroke="white" stroke-width="2" stroke-linecap="round" stroke-linejoin="round"/>
<path d="M23.9062 20.8245H47.8125" stroke="white" stroke-width="2" stroke-linecap="round" stroke-linejoin="round"/>
<path d="M23.9062 62.0848H47.8125" stroke="white" stroke-width="2" stroke-linecap="round" stroke-linejoin="round"/>
<path d="M54.8438 5.35187L42.1875 12.2286V27.3574L54.8438 34.2341L67.5 27.3574V12.2286L54.8438 5.35187Z" stroke="white" stroke-width="2" stroke-linecap="round" stroke-linejoin="round"/>
<path d="M54.8438 19.282V40.0793" stroke="white" stroke-width="2" stroke-linecap="round" stroke-linejoin="round"/>
<path d="M67.5 12.2286L54.8438 19.1053L42.1875 12.2286" stroke="white" stroke-width="2" stroke-linecap="round" stroke-linejoin="round"/>
<path d="M54.8438 45.2368L42.1875 52.1135V67.2423L54.8438 74.119L67.5 67.2423V52.1135L54.8438 45.2368Z" stroke="white" stroke-width="2" stroke-linecap="round" stroke-linejoin="round"/>
<path d="M54.8438 59.167V73.0875" stroke="white" stroke-width="2" stroke-linecap="round" stroke-linejoin="round"/>
<path d="M67.5 52.1135L54.8438 58.9902L42.1875 52.1135" stroke="white" stroke-width="2" stroke-linecap="round" stroke-linejoin="round"/>
<path d="M16.875 45.2368L4.21875 52.1135V67.2423L16.875 74.119L29.5312 67.2423V52.1135L16.875 45.2368Z" stroke="white" stroke-width="2" stroke-linecap="round" stroke-linejoin="round"/>
<path d="M16.875 59.167V73.0875" stroke="white" stroke-width="2" stroke-linecap="round" stroke-linejoin="round"/>
<path d="M29.5312 52.1135L16.875 58.9902L4.21875 52.1135" stroke="white" stroke-width="2" stroke-linecap="round" stroke-linejoin="round"/>
</svg>
