<svg width="61" height="80" viewBox="0 0 61 80" fill="none" xmlns="http://www.w3.org/2000/svg">
<path d="M36.7616 70.0844V78.5H30.1582V70.0844V68.5844H28.6582H21.6624H20.1624V70.0844V78.5H13.5591V70.0844V68.5844H12.0591H1.85166L3.21513 62.1582H5.31646C6.38571 62.1582 7.41118 61.7335 8.16726 60.9774C8.92334 60.2213 9.3481 59.1958 9.3481 58.1266V20.3207C9.3481 19.8245 9.25036 19.3331 9.06048 18.8747C8.87059 18.4163 8.59228 17.9998 8.24141 17.6489C7.89055 17.298 7.47401 17.0197 7.01559 16.8298C6.55715 16.6399 6.06581 16.5422 5.56962 16.5422H1.5V10.7827H12.0591H13.5591V9.2827V1.5H20.1624V9.2827V10.7827H21.6624H28.6582H30.1582V9.2827V1.5H36.77V9.2827V10.7606L38.2478 10.7825C48.3472 10.9326 53.5421 16.8763 54.7698 22.5854L54.7706 22.5892C55.707 26.8898 54.0696 30.1217 52.1106 32.3603C51.1254 33.4861 50.0723 34.3403 49.2621 34.9133C48.8589 35.1985 48.5208 35.4106 48.2885 35.5487C48.1725 35.6177 48.0833 35.668 48.0261 35.6995C47.9976 35.7153 47.977 35.7263 47.9651 35.7326L47.9562 35.7373L47.9552 35.7379L47.9543 35.7383L47.9539 35.7385L47.9533 35.7388L44.8301 37.3424L48.1494 38.4888L48.15 38.489L48.1502 38.4891L48.1509 38.4893L48.1517 38.4896L48.1591 38.4922C48.1635 38.4938 48.1692 38.4958 48.1764 38.4984C48.1852 38.5016 48.196 38.5056 48.2089 38.5103C48.2557 38.5276 48.3293 38.5554 48.4265 38.594C48.6212 38.6711 48.9101 38.7911 49.2697 38.9566C49.9905 39.2882 50.9869 39.7984 52.0741 40.5061C54.2654 41.9324 56.723 44.0936 58.1216 47.1144C60.028 51.3166 59.8502 56.6719 57.0937 60.96C54.3741 65.1906 49.0024 68.5844 40.1181 68.5844H38.2616H36.7616V70.0844ZM31.824 36.5801L31.825 36.58C37.9189 36.5025 42.6366 31.6901 42.4868 25.9776C42.3318 20.0645 36.8382 16.5422 31.443 16.5422H31.413H31.383H31.353H31.3231H31.2931H31.2632H31.2332H31.2033H31.1734H31.1435H31.1136H31.0837H31.0539H31.024H30.9942H30.9643H30.9345H30.9047H30.875H30.8452H30.8155H30.7857H30.756H30.7263H30.6966H30.6669H30.6373H30.6076H30.578H30.5484H30.5188H30.4892H30.4597H30.4301H30.4006H30.3711H30.3416H30.3122H30.2827H30.2533H30.2239H30.1945H30.1651H30.1357H30.1064H30.0771H30.0478H30.0185H29.9892H29.96H29.9308H29.9016H29.8724H29.8432H29.8141H29.785H29.7559H29.7268H29.6977H29.6687H29.6397H29.6107H29.5818H29.5528H29.5239H29.495H29.4661H29.4373H29.4085H29.3797H29.3509H29.3221H29.2934H29.2647H29.236H29.2074H29.1788H29.1502H29.1216H29.093H29.0645H29.036H29.0075H28.9791H28.9507H28.9223H28.8939H28.8656H28.8373H28.809H28.7807H28.7525H28.7243H28.6961H28.668H28.6399H28.6118H28.5837H28.5557H28.5277H28.4997H28.4718H28.4439H28.416H28.3882H28.3603H28.3325H28.3048H28.2771H28.2494H28.2217H28.1941H28.1665H28.1389H28.1114H28.0839H28.0564H28.029H28.0016H27.9742H27.9469H27.9196H27.8923H27.8651H27.8379H27.8107H27.7836H27.7565H27.7294H27.7024H27.6754H27.6484H27.6215H27.5946H27.5678H27.5409H27.5142H27.4874H27.4607H27.434H27.4074H27.3808H27.3543H27.3277H27.3013H27.2748H27.2484H27.222H27.1957H27.1694H27.1432H27.117H27.0908H27.0647H27.0386H27.0125H26.9865H26.9605H26.9346H26.9087H26.8829H26.857H26.8313H26.8055H26.7799H26.7542H26.7286H26.703H26.6775H26.6521H26.6266H26.6012H26.5759H26.5506H26.5253H26.5001H26.4749H26.4498H26.4247H26.3997H26.3747H26.3497H26.3248H26.2999H26.2751H26.2504H26.2256H26.201H26.1763H26.1517H26.1272H26.1027H26.0782H26.0538H26.0295H26.0052H25.9809H25.9567H25.9325H25.9084H25.8844H25.8603H25.8364H25.8124H25.7886H25.7647H25.741H25.7172H25.6936H25.6699H25.6464H25.6228H25.5994H25.5759H25.5526H25.5292H25.506H25.4828H25.4596H25.4365H25.4134H25.3904H25.3674H25.3445H25.3217H25.2989H25.2761H25.2534H25.2308H25.2082H25.1857H25.1632H25.1407H25.1184H25.0961H25.0738H25.0516H25.0294H25.0073H24.9853H24.9633H24.9414H24.9195H24.8977H24.8759H24.8542H24.8326H24.811H24.7894H24.7679H24.7465H24.7252H24.7039H24.6826H24.6614H24.6403H24.6192H24.5982H24.5773H24.5564H24.5355H24.5147H24.494H24.4734H24.4528H24.4322H24.4118H24.3914H24.371H24.3507H24.3305H24.3103H24.2902H24.2701H24.2502H24.2302H24.2104H24.1906H24.1708H24.1512H24.1316H24.112H24.0925H24.0731H24.0538H24.0345H24.0152H23.9961H23.977H23.958H23.939H23.9201H23.9012H23.8825H23.8638H23.8451H23.8266H23.808H23.7896H23.7712H23.7529H23.7347H23.7165H23.6984H23.6804H23.6624H23.6445H23.6266H23.6089H23.5912H23.5735H23.556H23.5385H23.5211H23.5037H23.4864H23.4692H23.4521H23.435H23.418H23.4011H23.3842H23.3674H23.3507H23.334H23.3175H23.301H23.2845H23.2682H23.2519H23.2357H23.2195H23.2034H23.1874H23.1715H23.1557H23.1399H23.1242H23.1085H23.093H23.0775H23.0621H23.0468H23.0315H23.0163H23.0012H22.9862H22.9712H22.9563H22.9415H22.9268H22.9121H22.8976H22.883H22.8686H22.8543H22.84H22.8258H22.8117H22.7977H22.7837H22.7698H22.756H22.7423H22.7286H22.7151H22.7016H22.6882H22.6749H22.6616H22.6484H22.6353H22.6223H22.6094H22.5966H22.5838H22.5711H22.5585H22.546H22.5335H22.5212H22.5089H22.4967H22.4846H22.4725H22.4606H22.4487H22.4369H22.4252H22.4136H22.4021H22.3906H22.3793H22.368H22.3568H22.3457H22.3346H22.3237H22.3128H22.3021H22.2914H22.2808H22.2703H22.2598H22.2495H22.2392H22.229H22.219H22.209H22.199H22.1892H22.1795H22.1698H22.1603H22.1508H22.1414H22.1321H22.1229H22.1138H22.1048H22.0958H22.087H22.0782H22.0695H22.0609H22.0525H22.0441H22.0357H22.0275H22.0194H22.0113H22.0034H21.9955H21.9878H21.9801H21.9725H21.965H21.9576H21.9503H21.9431H21.936H21.929H21.922H21.9152H21.9084H21.9018H21.8952H21.8888H21.8824H21.8761H21.8699H21.8638H21.8579H21.852H21.8462H21.8405H21.8348H21.8293H21.8239H21.8186H21.8134H21.8082H21.8032H21.7983H21.7934H21.7887H21.7841H21.7795H21.7751H21.7707H21.7665H21.7623H21.7583H21.7543H21.7505H21.7467H21.7431H21.7395H21.7361H21.7327H21.7294H21.7263H21.7232H21.7203H21.7174H21.7147H21.712H21.7095H21.707H21.7047H21.7025H21.7003H21.6983H21.6964H21.6945H21.6928H21.6912H21.6896H21.6882H21.6869H21.6857H21.6846H21.6836H21.6827H21.6819H21.6812H21.6806H21.6802H21.6798H21.6795H21.6794L21.6793 18.0422V16.5422H20.1793V18.0422V35.0802V36.5634L21.6624 36.5801L21.6793 35.0802L21.6625 36.5801L21.6627 36.5801L21.6635 36.5801L21.6665 36.5801L21.6781 36.5802L21.7235 36.5807L21.8993 36.5825C22.0529 36.584 22.2776 36.5861 22.5623 36.5884C23.1317 36.5931 23.9416 36.5986 24.9046 36.6023C26.8295 36.6097 29.3699 36.6097 31.824 36.5801ZM21.6357 62.1328L21.654 60.6329C21.6357 62.1328 21.6357 62.1328 21.6358 62.1328L21.6361 62.1328L21.6372 62.1328L21.6414 62.1329L21.6581 62.1331L21.7232 62.1338L21.974 62.1366C22.1923 62.139 22.5096 62.1423 22.9061 62.1459C23.699 62.1532 24.8089 62.1619 26.0775 62.1677C28.1256 62.1771 30.5946 62.1789 32.8122 62.1546V62.1779L34.34 62.1495C38.0077 62.0815 41.0449 61.0521 43.1765 59.1113C45.3285 57.1519 46.393 54.4121 46.3692 51.2797C46.3445 48.0373 44.9508 45.4679 42.6096 43.7699C40.3201 42.1095 37.238 41.3575 33.8746 41.4116L33.8697 41.4117C31.2722 41.4619 28.2255 41.462 25.8222 41.4494C24.6219 41.4431 23.5846 41.4336 22.8475 41.4257C22.479 41.4218 22.1857 41.4182 21.9846 41.4157L21.7545 41.4126L21.6953 41.4118L21.6805 41.4116L21.6768 41.4116L21.6759 41.4116L21.6757 41.4115L20.154 41.3896V42.9114V60.6329V62.1147L21.6357 62.1328Z" stroke="white" stroke-width="3"/>
</svg>
