<svg width="90" height="82" viewBox="0 0 90 82" fill="none" xmlns="http://www.w3.org/2000/svg">
<path d="M64.875 3.60938C76.7578 3.60938 86.4141 13.2891 86.4141 25.2422C86.4141 31.3828 83.8594 36.9141 79.7812 40.8516L45 75.9609L9.60938 40.2188C5.90625 36.3281 3.60938 31.0547 3.60938 25.2422C3.60938 13.2891 13.2422 3.60938 25.1484 3.60938C34.1016 3.60938 41.7656 9.09375 45.0234 16.9219C48.2344 9.11719 55.9219 3.60938 64.875 3.60938ZM64.875 0C56.9531 0 49.6875 3.70313 45 9.79688C40.3125 3.70313 33.0469 0 25.125 0C11.2734 0 0 11.3203 0 25.2422C0 31.7812 2.48438 37.9922 7.00781 42.7266L42.4453 78.5156L45 81.0938L47.5547 78.5156L82.3125 43.4063C87.2344 38.6484 90 32.1797 90 25.2422C90 11.3203 78.7266 0 64.875 0Z" fill="white"/>
</svg>
